<?xml version="1.0" encoding="UTF-8" standalone="no"?>
<!-- Created with Inkscape (http://www.inkscape.org/) -->

<svg
   xmlns:svg="http://www.w3.org/2000/svg"
   xmlns="http://www.w3.org/2000/svg"
   version="1.1"
   width="420"
   height="529.3"
   id="svg2">
  <defs
     id="defs4" />
  <g
     transform="translate(-157.35,-246.71)"
     id="layer1">
    <path
       d="m 339.17,661.74 0,-36.01 5.28,0 5.28,0 18.31,27.6 18.3,27.59 0,-27.63 0,-27.62 4.97,0 4.97,0 0,36.01 0,36 -5.28,0 -5.28,0 -18.31,-27.6 -18.3,-27.59 0,27.63 0,27.63 -4.97,0 -4.97,0 0,-36.01 z m -66.69,-53.78 -49.92,-28.79 0.26,-84.42 0.26,-84.42 72.6,-41.89 72.59,-41.88 7.07,4 c 3.9,2.2 36.72,21.04 72.94,41.87 l 65.86,37.87 0,84.43 0,84.44 -49.67,28.56 c -27.32,15.7 -50.43,28.73 -51.37,28.94 -1.77,0.4 -3.97,-4.35 -2.63,-5.67 0.43,-0.43 22.13,-13.1 48.22,-28.16 l 47.47,-27.4 0,-80.67 0,-80.66 -68.29,-39.44 c -37.56,-21.7 -68.85,-39.44 -69.53,-39.44 -0.69,0 -31.97,17.76 -69.54,39.46 l -68.28,39.47 0,80.6 0,80.6 48.53,28.03 c 47.82,27.61 48.53,28.07 46.73,30.77 -1,1.52 -2.18,2.7 -2.6,2.67 -0.44,0 -23.25,-13.03 -50.7,-28.87 z m 125.44,5.08 c -1.25,-2.75 0,-3.65 34.13,-23.33 19.48,-11.26 39.17,-22.58 43.77,-25.14 l 8.33,-4.68 1.89,2.9 1.9,2.89 -42.9,24.75 c -23.6,13.61 -43.56,24.91 -44.36,25.11 -0.8,0.19 -2.05,-0.94 -2.76,-2.5 z m -150.63,-118.31 0,-67.66 3.72,0 3.73,0 0,67.66 0,67.67 -3.73,0 -3.72,0 0,-67.67 z M 424.67,395.7 c -56.56,-32.8 -57.91,-33.69 -56.6,-36.56 0.85,-1.84 2.03,-2.68 3.18,-2.24 1,0.38 27.66,15.6 59.23,33.82 57.26,33.04 57.41,33.14 55.55,35.97 -1.02,1.58 -2.22,2.81 -2.66,2.73 -0.43,0 -26.85,-15.24 -58.7,-33.72 z"
       id="path2830"
       style="fill:#000000" />
    <g
       id="text2832"
       style="font-size:70.40714px;font-style:normal;font-variant:normal;font-weight:normal;font-stretch:normal;text-align:start;line-height:125%;writing-mode:lr-tb;text-anchor:start;fill:#0000ff;fill-opacity:1;stroke:none;font-family:Arial;-inkscape-font-specification:Arial">
      <path
         d="m 374.84,766.01 -6.19,0 0,-39.44 c -1.49,1.43 -3.44,2.85 -5.86,4.27 -2.42,1.42 -4.59,2.48 -6.52,3.19 l 0,-5.98 c 3.46,-1.62 6.49,-3.6 9.08,-5.91 2.59,-2.32 4.42,-4.56 5.5,-6.74 l 3.99,0 z"
         id="path2951" />
    </g>
    <g
       id="text2832-1"
       style="font-size:70.40714px;font-style:normal;font-variant:normal;font-weight:normal;font-stretch:normal;text-align:start;line-height:125%;writing-mode:lr-tb;text-anchor:start;fill:#0000ff;fill-opacity:1;stroke:none;font-family:Arial;-inkscape-font-specification:Arial">
      <path
         d="m 566.83,612.55 0,5.95 -33.31,0 c 0,-1.49 0.2,-2.92 0.72,-4.3 0.85,-2.27 2.21,-4.5 4.08,-6.7 1.87,-2.2 4.56,-4.75 8.09,-7.63 5.48,-4.5 9.18,-8.06 11.11,-10.68 1.92,-2.62 2.89,-5.1 2.89,-7.44 0,-2.45 -0.88,-4.52 -2.63,-6.21 -1.76,-1.68 -4.04,-2.52 -6.86,-2.52 -2.98,0 -5.37,0.89 -7.15,2.68 -1.79,1.78 -2.7,4.26 -2.72,7.42 l -6.36,-0.65 c 0.44,-4.74 2.07,-8.36 4.92,-10.85 2.84,-2.48 6.65,-3.73 11.44,-3.73 4.84,0 8.67,1.34 11.49,4.03 2.82,2.68 4.23,6 4.23,9.97 0,2.01 -0.42,3.99 -1.24,5.94 -0.83,1.95 -2.2,4 -4.11,6.16 -1.91,2.15 -5.09,5.11 -9.54,8.87 -3.71,3.11 -6.1,5.23 -7.15,6.34 -1.05,1.11 -1.93,2.23 -2.61,3.35 z"
         id="path2948" />
    </g>
    <g
       id="text2832-4"
       style="font-size:70.40714px;font-style:normal;font-variant:normal;font-weight:normal;font-stretch:normal;text-align:start;line-height:125%;writing-mode:lr-tb;text-anchor:start;fill:#0000ff;fill-opacity:1;stroke:none;font-family:Arial;-inkscape-font-specification:Arial">
      <path
         d="m 534.35,410.07 6.19,-0.83 c 0.71,3.51 1.91,6.04 3.62,7.58 1.71,1.55 3.79,2.33 6.24,2.33 2.91,0 5.37,-1.01 7.38,-3.03 2,-2.02 3,-4.51 3,-7.49 0,-2.85 -0.92,-5.19 -2.78,-7.03 -1.86,-1.85 -4.22,-2.77 -7.08,-2.77 -1.17,0 -2.63,0.23 -4.37,0.69 l 0.69,-5.44 c 0.41,0.1 0.74,0.1 1,0.1 2.63,0 5,-0.69 7.11,-2.06 2.11,-1.38 3.17,-3.5 3.17,-6.36 0,-2.27 -0.77,-4.15 -2.31,-5.64 -1.53,-1.49 -3.52,-2.23 -5.95,-2.23 -2.4,0 -4.41,0.75 -6.01,2.27 -1.61,1.51 -2.64,3.78 -3.1,6.8 l -6.18,-1.1 c 0.75,-4.15 2.47,-7.36 5.15,-9.64 2.68,-2.28 6.02,-3.42 10.01,-3.42 2.75,0 5.28,0.59 7.59,1.77 2.32,1.18 4.09,2.79 5.32,4.83 1.22,2.04 1.84,4.21 1.84,6.5 0,2.17 -0.59,4.16 -1.76,5.94 -1.17,1.79 -2.9,3.21 -5.19,4.27 2.98,0.68 5.29,2.11 6.95,4.28 1.65,2.16 2.47,4.87 2.47,8.13 0,4.4 -1.6,8.13 -4.81,11.19 -3.21,3.06 -7.27,4.59 -12.17,4.59 -4.43,0 -8.1,-1.32 -11.02,-3.96 -2.92,-2.63 -4.59,-6.05 -5,-10.24 z"
         id="path2945" />
    </g>
    <g
       id="text2832-1-9"
       style="font-size:70.40714px;font-style:normal;font-variant:normal;font-weight:normal;font-stretch:normal;text-align:start;line-height:125%;writing-mode:lr-tb;text-anchor:start;fill:#0000ff;fill-opacity:1;stroke:none;font-family:Arial;-inkscape-font-specification:Arial">
      <path
         d="m 371.37,307.11 0,-12.07 -21.87,0 0,-5.67 23,-32.66 5.05,0 0,32.66 6.81,0 0,5.67 -6.81,0 0,12.07 z m 0,-17.74 0,-22.73 -15.78,22.73 z"
         id="path2942" />
    </g>
    <g
       id="text2832-8"
       style="font-size:70.40714px;font-style:normal;font-variant:normal;font-weight:normal;font-stretch:normal;text-align:start;line-height:125%;writing-mode:lr-tb;text-anchor:start;fill:#0000ff;fill-opacity:1;stroke:none;font-family:Arial;-inkscape-font-specification:Arial">
      <path
         d="m 167.63,410.17 6.49,-0.55 c 0.48,3.17 1.6,5.54 3.35,7.14 1.76,1.59 3.87,2.39 6.35,2.39 2.98,0 5.5,-1.13 7.56,-3.37 2.06,-2.25 3.09,-5.23 3.09,-8.94 0,-3.53 -0.99,-6.32 -2.97,-8.36 -1.98,-2.04 -4.58,-3.06 -7.79,-3.06 -1.99,0 -3.79,0.46 -5.39,1.36 -1.61,0.91 -2.87,2.08 -3.78,3.53 l -5.81,-0.76 4.88,-25.89 25.06,0 0,5.92 -20.11,0 -2.72,13.54 c 3.03,-2.11 6.2,-3.16 9.52,-3.16 4.4,0 8.12,1.52 11.14,4.57 3.03,3.05 4.54,6.97 4.54,11.76 0,4.56 -1.33,8.5 -3.99,11.82 -3.23,4.08 -7.64,6.12 -13.23,6.12 -4.59,0 -8.33,-1.28 -11.23,-3.85 -2.9,-2.56 -4.55,-5.97 -4.96,-10.21 z"
         id="path2939" />
    </g>
    <g
       id="text2832-1-4"
       style="font-size:70.40714px;font-style:normal;font-variant:normal;font-weight:normal;font-stretch:normal;text-align:start;line-height:125%;writing-mode:lr-tb;text-anchor:start;fill:#0000ff;fill-opacity:1;stroke:none;font-family:Arial;-inkscape-font-specification:Arial">
      <path
         d="m 199.73,580.44 -6.15,0.48 c -0.55,-2.43 -1.33,-4.19 -2.34,-5.29 -1.67,-1.77 -3.73,-2.65 -6.18,-2.65 -1.98,0 -3.71,0.55 -5.2,1.65 -1.94,1.42 -3.48,3.5 -4.6,6.22 -1.13,2.73 -1.71,6.62 -1.76,11.66 1.49,-2.27 3.32,-3.96 5.47,-5.06 2.15,-1.1 4.41,-1.65 6.77,-1.65 4.13,0 7.64,1.52 10.54,4.56 2.9,3.04 4.35,6.96 4.35,11.77 0,3.17 -0.68,6.11 -2.05,8.82 -1.36,2.72 -3.23,4.8 -5.62,6.24 -2.38,1.45 -5.09,2.17 -8.11,2.17 -5.16,0 -9.36,-1.9 -12.62,-5.69 -3.25,-3.8 -4.88,-10.05 -4.88,-18.76 0,-9.74 1.8,-16.82 5.4,-21.24 3.14,-3.85 7.37,-5.78 12.68,-5.78 3.97,0 7.22,1.11 9.75,3.34 2.53,2.22 4.05,5.29 4.55,9.21 z m -25.26,21.73 c 0,2.13 0.45,4.17 1.35,6.12 0.91,1.95 2.18,3.43 3.8,4.45 1.63,1.02 3.34,1.53 5.13,1.53 2.61,0 4.85,-1.05 6.73,-3.16 1.88,-2.11 2.82,-4.98 2.82,-8.6 0,-3.48 -0.93,-6.23 -2.78,-8.23 -1.86,-2.01 -4.2,-3.01 -7.01,-3.01 -2.8,0 -5.17,1 -7.12,3.01 -1.95,2 -2.92,4.63 -2.92,7.89 z"
         id="path2936" />
    </g>
  </g>
</svg>
